<svg width="181" height="425" viewBox="0 0 181 425" fill="none" xmlns="http://www.w3.org/2000/svg">
<g id="teacher mascot F - straight smile">
<g id="Body">
<g id="right leg">
<path id="Vector" d="M19.5889 60.8156C20.7049 57.044 19.1239 18.7004 18.1938 0C21.2939 0.314292 28.6102 1.03716 33.0744 1.41432C34.4695 27.8149 29.3542 45.7295 28.4242 64.1156C29.5402 64.8699 29.5093 70.0872 29.3542 72.6015L25.634 74.0158V71.6586C21.4489 74.4873 11.9625 80.7103 7.49825 82.9732C1.91796 85.8018 -0.407163 84.3875 0.0578617 82.9732C0.522887 81.5588 18.1938 65.5299 19.5889 60.8156Z" transform="translate(123.479 328.007) scale(-1 1)" fill="#E8B38E"/>
<path id="Vector_2" d="M27.4365 0C20.7401 7.92017 11.0056 10.5288 6.97537 10.8431C4.80526 13.0431 0.37202 18.0089 0 20.2719C2.60414 23.6662 17.2059 14.1432 24.1813 8.95733L25.5764 9.90021L28.3665 8.95733C28.6765 7.22873 28.9245 3.01721 27.4365 0Z" transform="translate(122.957 391.651) scale(-1 1)" fill="#676767"/>
</g>
<g id="left leg">
<path id="Vector_3" d="M18.4646 60.8081C19.5808 57.037 17.9995 18.6981 17.0693 0C20.1698 0.314253 27.487 1.03704 31.9518 1.41414C33.347 27.8114 28.2311 45.7239 27.301 64.1077C28.4172 64.8619 28.3862 70.0785 28.2311 72.5926L24.5105 74.0067V71.6498C20.3248 74.4781 13.9035 78.4005 9.43868 80.6631C3.85771 83.4914 -0.430538 82.5902 0.0345455 81.176C0.499629 79.7619 17.0693 65.5219 18.4646 60.8081Z" transform="matrix(0.995309 -0.0967465 0.0941555 0.995558 50.5898 320.389)" fill="#E8B38E"/>
<path id="Vector_4" d="M27.4365 0C20.7401 7.92017 11.0056 10.5288 6.97537 10.8431C4.80526 13.0431 0.37202 18.0089 0 20.2719C2.60414 23.6662 17.2059 14.1432 24.1813 8.95733L25.5764 9.90021L28.3665 8.95733C28.6765 7.22873 28.9245 3.01721 27.4365 0Z" transform="translate(57.1572 381.864)" fill="#676767"/>
</g>
<g id="left arm">
<path id="Vector_5" d="M21.4112 7.89926C18.7942 6.58271 10.3788 0 9.6348 0C7.01781 3.94963 2.60414 12.6928 0 25.893C5.5803 39.0933 17.0509 52.765 26.9714 60.308C27.1265 58.4223 29.5756 57.1965 30.6916 50.4078C25.1113 46.2592 17.361 32.4932 12.0906 25.4216C12.0906 25.4216 18.7942 10.5323 21.4112 7.89926Z" transform="translate(32.7432 164.568)" fill="#E8B38E"/>
<path id="sleeve" d="M0 18.4316L9.64602 29.5147L20.8066 21.5003C18.1715 16.6287 10.4551 3.39436 7.85095 0C8.59499 4.14866 2.63514 13.8744 0 18.4316Z" transform="translate(63.3149 143.503) scale(-1 1)" fill="#F7D138"/>
</g>
<path id="neck" d="M17.6621 26.8683C7.89657 26.8683 2.32512 16.178 0 11.935L10.2337 7.22066V0H23.2544V7.22066L32.0867 16.178C29.4516 20.4209 29.1947 26.8683 17.6621 26.8683Z" transform="translate(107.143 102.153) scale(-1 1)" fill="#E8B38E"/>
<g id="right arm">
<path id="bicep" d="M23.2071 5.65726C18.5569 3.77151 9.07039 0 8.32635 0C6.62127 4.0858 2.60408 18.472 -5.38702e-05 31.6723L14.1322 31.1962L23.2071 5.65726Z" transform="translate(152.434 165.314) scale(-1 1) rotate(1.92942)" fill="#E8B38E"/>
<g id="forearm/hand">
<path id="forearm" d="M0 5.28777C5.58029 18.488 29.5226 35.0558 39.4432 42.5988C39.5982 40.7131 40.4406 37.2001 41.5566 30.4114C35.9763 26.2627 22.6895 13.1061 15.743 3.78585C8.7965 -5.5344 0 5.28777 0 5.28777Z" transform="translate(153.219 191.128) scale(-1 1) rotate(4.19827)" fill="#E8B38E"/>
</g>
<path id="sleeve_2" d="M15.3458 48.8182L23.7163 27.6035L32.6357 11.5867C33.5378 6.03561 21.9285 -6.33109 14.4157 3.96757C10.0755 14.8107 3.7202 34.5808 0 41.7466C0 44.3867 10.2305 47.5611 15.3458 48.8182Z" transform="translate(143.667 124.782) scale(-1 1) rotate(1.92942)" fill="#F7D138"/>
<path id="shadow" d="M6.97923 12.4105L15.3498 33.6251C20.4651 32.368 30.6955 29.1937 30.6955 26.5535C29.2068 23.6856 26.7742 18.2044 24.1135 11.9664C24.2117 30.325 16.2019 19.567 8.60179 9.3592C4.89616 3.16664 2.48877 1.60742 0 0L6.97923 12.4105Z" transform="translate(113.5 141) rotate(-1.92942)" fill="#545454" fill-opacity="0.1"/>
</g>
<g id="dress">
<path id="Vector_6" d="M1.68304 125.874C-3.52524 82.8789 4.42638 23.4509 10.9696 0H53.301C59.3463 4.71438 72.367 68.83 72.832 72.6015C73.297 76.373 80.2724 108.902 86.7827 123.517C48.6507 131.531 29.5845 132.946 1.68304 125.874Z" transform="translate(121.387 200.36) scale(-1 1)" fill="#EB5757"/>
<path id="Intersect" d="M24.1997 121.73C15.1655 114.747 21.4541 89.3228 28.4414 61.0735C33.6172 40.1504 39.1758 17.6777 39.1758 0H30.1235C23.5903 17.3538 14.3413 63.0972 13.9507 66.2651C13.4858 70.0366 6.51025 102.566 0 117.18C9.00781 119.074 16.9517 120.599 24.1997 121.73Z" transform="translate(34.6045 206.697)" fill="#F07171"/>
</g>
<path id="undershirt" d="M13.4857 13.2003L0 0C2.79015 0.78573 9.4865 4.71438 12.0906 4.71438C14.6948 4.71438 19.0012 3.81399 21.3911 1.88575L13.4857 13.2003Z" transform="translate(100.632 122.573) scale(-1 1)" fill="white"/>
<g id="blouse">
<path id="Vector_7" d="M22.9741 0C14.7941 4.71438 3.25517 9.35124 0 15.9514L6.04532 43.2948L19.066 87.1386H61.8483C59.9882 78.087 67.5836 55.7094 71.6138 45.652C84.1694 28.2088 62.2833 11.8663 54.3779 5.26617L41.8522 22.5515L22.9741 0Z" transform="translate(129.417 113) scale(-1 1)" fill="#F7D138"/>
<g id="Mask Group">
<mask id="mask0" mask-type="alpha" maskUnits="userSpaceOnUse" x="54" y="113" width="76" height="88">
<path id="Vector_8" d="M22.9741 0C14.7941 4.71438 3.25517 9.35124 0 15.9514L6.04532 43.2948L19.066 87.1386H61.8483C59.9882 78.087 67.5836 55.7094 71.6138 45.652C84.1694 28.2088 62.2833 11.8663 54.3779 5.26617L41.8522 22.5515L22.9741 0Z" transform="translate(129.417 113) scale(-1 1)" fill="#C4C4C4"/>
</mask>
<g mask="url(#mask0)">
<path id="Vector 2" d="M0 30.4254L10.4679 11.994C9.15944 51.4901 39.2548 -21.663 39.2548 6.72782C39.2548 19.8932 49.7227 14.6271 52.3397 18.5767C54.9567 22.5263 49.7227 21.2098 44.4887 25.1594C39.2548 29.109 44.4887 42.2745 45.7972 50.1737C46.844 56.4931 54.9567 60.7061 58.8821 62.0226H39.2548L27.4783 21.2096L22.2444 39.6412L0 30.4254Z" transform="translate(150.934 141.819) scale(-1 1)" fill="#545454" fill-opacity="0.1"/>
<path id="Vector 2_2" d="M0 4.24436C0 4.22206 0.00563021 4.20543 0.0166808 4.19433C5.27829 -11.4845 26.1712 21.3664 27.4783 27.9422C28.7868 34.5249 22.2444 47.6903 18.3189 52.9565C15.1785 57.1694 15.2657 78.4096 15.7019 88.5031L5.23397 85.87C5.23397 82.3592 2.61698 67.4384 2.61698 62.1722C2.61698 47.6903 11.7764 45.0572 15.7019 33.2083C19.5609 21.5601 0.658093 3.55027 0.0166808 4.19433C0.011103 4.21095 0.00554269 4.22763 0 4.24436Z" transform="translate(78.9678 115.338) scale(-1 1)" fill="white" fill-opacity="0.14"/>
</g>
</g>
</g>
<path id="belt" d="M2.61698 0.224674L45.4163 0C45.4163 0 49.1458 6.61876 49.7227 11.3145C49.7186 11.2815 0 11.3145 0 11.3145L2.61698 0.224674Z" transform="translate(113.036 199.889) scale(-1 1)" fill="#364551"/>
</g>
<g id="Head/Hair">
<g id="hair back fill">
<path id="Vector_9" d="M14.0621 14.8317C3.35568 21.1882 0 41.4866 0 54.6869C0 67.8871 4.15195 92.6578 26.5096 93.3448C41.8522 93.8162 51.6177 93.8162 66.5017 93.3448C86.9596 92.6969 91.1448 81.0874 91.1448 45.7295C91.1448 10.3716 53.6757 0 45.1106 0C36.5455 0 18.3446 2.11882 14.0621 14.8317Z" transform="translate(135.978 1.88599) scale(-1 1)" fill="#4A3826"/>
</g>
<g id="Union">
<path id="Vector_10" fill-rule="evenodd" clip-rule="evenodd" d="M38.6579 0C20.2681 0 5.3605 10.7645 5.3605 24.0434V41.3901C2.26336 42.3024 0 45.2006 0 48.6346C0 52.5726 2.97679 55.8059 6.77373 56.1477C11.5402 68.5052 27.3593 82.5273 38.6579 82.5273C51.1028 82.5273 66.2919 68.3443 70.7006 55.9357C73.9012 55.0925 76.264 52.1432 76.264 48.6346C76.264 45.6027 74.4997 42.9884 71.9548 41.79V24.0434C71.9548 10.7645 57.0473 0 38.6579 0Z" transform="translate(128.539 22.0825) scale(-1 1)" fill="#E8B38E"/>
</g>
<ellipse id="Ellipse" cx="6.44182" cy="4.44301" rx="6.44182" ry="4.44301" transform="translate(111.123 75.1277) scale(-1 1)" fill="url(#paint0_radial)" fill-opacity="0.7"/>
<ellipse id="Ellipse_2" cx="6.44182" cy="4.44301" rx="6.44182" ry="4.44301" transform="translate(80.5249 75.1277) scale(-1 1)" fill="url(#paint1_radial)" fill-opacity="0.7"/>
<g id="hair front fill">
<path id="Vector_11" d="M0.21571 39.1441C0.0908252 38.1064 0 37.0412 0 35.3859C0 30.0888 5.10445 15.5166 15.8108 9.16016C20.0934 -3.55278 31.427 0.674313 39.9921 0.674313C48.5572 0.674313 81.3793 29.9034 81.3793 36.0321C81.3793 36.0321 81.4266 36.7428 81.5112 37.9649C82.3806 45.5858 86.8105 62.2985 84.2674 70.8924C81.3617 74.0222 76.5776 66.6756 76.5776 66.6756C76.5776 66.6756 75.9396 44.0413 74.869 39.8036L74.8451 39.7089C73.8058 35.591 72.1478 29.0214 53.0236 27.9701C36.6852 27.0719 29.1127 18.0822 27.3283 12.0788C26.2577 16.6696 22.8316 26.0631 17.6926 26.9106C11.2688 27.9701 9.12746 35.3859 9.12746 42.8018C9.12746 48.7345 7.90542 43.1831 7.90542 48.761L0.930049 51.5896L0.21571 39.1441Z" transform="translate(133.188 12.0498) scale(-1 1)" fill="#4A3826"/>
<g id="Mask Group_2">
<mask id="mask1" mask-type="alpha" maskUnits="userSpaceOnUse" x="44" y="1" width="92" height="95">
<path id="Vector_12" d="M14.0621 14.8317C3.35568 21.1882 0 41.4866 0 54.6869C0 67.8871 4.15195 92.6578 26.5096 93.3448C41.8522 93.8162 51.6177 93.8162 66.5017 93.3448C86.9596 92.6969 91.1448 81.0874 91.1448 45.7295C91.1448 10.3716 53.6757 0 45.1106 0C36.5455 0 18.3446 2.11882 14.0621 14.8317Z" transform="translate(135.978 1.88599) scale(-1 1)" fill="white"/>
</mask>
<g mask="url(#mask1)">
<path id="Vector_13" d="M3.06485 16.2986C-2.72242 15.2318 -0.469881 6.10869 11.1556 2.33721C15.4957 0.137171 29.5642 -2.57282 47.7932 4.97019C66.0221 12.5132 71.4236 30.1275 72.3537 37.5133C73.963 48.416 71.8853 64.1967 71.8853 74.757C62.5846 72.8712 65.3782 57.6698 65.3782 49.7707C65.3782 37.5133 49.1025 30.4418 39.337 30.4418C25.8513 30.4418 16.0855 17.2415 16.0855 17.2415C12.3653 11.5842 8.18014 17.2415 3.06485 16.2986Z" transform="translate(117.65 1.6123) scale(-1 1)" fill="#755C42"/>
</g>
</g>
</g>
</g>
<g id="Face">
<g id="Vector 6">
<path id="Vector_14" d="M2.38154 0.414246C1.83673 -0.138082 0.95342 -0.138082 0.40861 0.414246C-0.136203 0.96657 -0.136203 1.86207 0.40861 2.41439L2.38154 0.414246ZM9.82194 2.41439C10.3667 1.86207 10.3667 0.96657 9.82194 0.414246C9.27712 -0.138082 8.39382 -0.138082 7.849 0.414246L9.82194 2.41439ZM0.40861 2.41439C1.38908 3.40838 2.8736 4.71439 5.11527 4.71439V1.88576C4.05011 1.88576 3.26117 1.30601 2.38154 0.414246L0.40861 2.41439ZM5.11527 4.71439C6.38371 4.71439 7.34391 4.41804 8.1442 3.90843C8.87132 3.44543 9.43487 2.8068 9.82194 2.41439L7.849 0.414246C7.30602 0.964716 7.04356 1.26896 6.66015 1.51311C6.3499 1.71067 5.91503 1.88576 5.11527 1.88576V4.71439Z" transform="translate(94.5908 79.6738) scale(-1 1)" fill="#54361A" fill-opacity="0.5"/>
</g>
<g id="Vector 6.1">
<path id="Vector_15" d="M9.76552 7.07158C5.76118 7.07158 1.8601 3.77151 0 0C6.04532 3.30007 19.1859 1.5086 21.8562 0C20.0876 2.07618 14.6452 7.07158 9.76552 7.07158Z" transform="translate(100.635 88.1589) scale(-1 1)" fill="white"/>
</g>
<g id="Vector 7 (Stroke)">
<path id="Vector_16" fill-rule="evenodd" clip-rule="evenodd" d="M8.33736 3.30007C5.76339 3.30007 3.13187 4.69937 2.17286 5.39382C1.5459 5.84783 0.674608 5.70061 0.226778 5.065C-0.221054 4.42939 0.0509912 3.68624 0.551126 3.09207C2.75699 0.471438 4.95892 0 8.33726 0C11.7496 0 15.3046 2.53102 17.9934 4.51346C18.6165 4.97287 18.7543 5.85741 18.301 6.48912C17.8479 7.12083 17.3308 7.05956 16.7078 6.60014C14.5152 4.98359 11.1365 3.30007 8.33736 3.30007Z" transform="translate(85.2544 48.0874) scale(-1 1)" fill="#54361A"/>
</g>
<g id="Vector 7.1 (Stroke)">
<path id="Vector_17" fill-rule="evenodd" clip-rule="evenodd" d="M8.35684 3.24265C5.78258 3.24265 3.15078 4.64182 2.19168 5.33618C1.56465 5.79014 0.693262 5.64294 0.245383 5.0074C-0.202497 4.37185 -0.00365762 3.5564 0.569766 3.03467C3.39656 0.462729 5.11326 0 8.49196 0C11.9047 0 15.3249 2.4737 18.0139 4.45591C18.637 4.91529 18.7749 5.79972 18.3216 6.43136C17.8684 7.063 17.1492 6.82901 16.526 6.36964C14.3332 4.75327 11.1563 3.24265 8.35684 3.24265Z" transform="matrix(0.996053 0.0887568 -0.0897077 0.995968 95.8936 47.3232)" fill="#54361A"/>
</g>
<g id="Galsses/Eyes">
<g id="Vector 4">
<g id="Vector_18" style="mix-blend-mode:multiply" transform="translate(123.889 60.428) scale(-1 1)">
<path d="M1.39507 5.56955C2.39025 3.80397 4.18522 0.855172 0 0.855246C6.04525 -3.3877 4.18529 9.34114 5.58036 13.1127C6.97543 16.8842 15.3459 15.9413 21.8562 15.9413C28.3666 15.9413 32.0868 4.62675 32.0868 3.21244C32.0868 1.79812 33.9469 2.741 36.272 3.21244C38.5971 3.68388 39.5272 10.7555 42.3173 13.1127C45.1075 15.4699 53.0129 16.8842 58.5932 15.9413C60.1029 15.6862 61.2652 14.669 62.1484 13.2945C63.5928 9.71936 64.3914 5.90895 64.6385 4.15531C64.5359 6.54731 63.8766 10.6049 62.1484 13.2945C61.7808 14.2046 61.3713 15.0995 60.9183 15.9413C60.1573 17.3555 54.218 20.8839 42.3173 18.2985C35.807 16.8841 33.9469 7.92675 33.0168 6.51243C32.2728 5.38098 29.9166 11.0698 28.3666 12.6412C27.7465 14.0556 27.3435 16.4127 19.5311 18.2984C9.76561 20.6556 4.65031 17.8269 3.25524 15.4698C2.24014 13.7547 -0.465025 8.86962 1.39507 5.56955Z" fill="#A67653" fill-opacity="0.3"/>
</g>
</g>
<g id="Vector 3">
<path id="Vector_19" d="M44.721 0.662965C49.9696 0.103349 54.5714 0.205628 58.0958 0.48524C60.6132 1.4925 63.2976 16.4508 53.6307 16.8421C41.5471 17.3313 35.5531 16.9766 33.0357 4.08502C32.0795 4.38063 31.2295 4.56932 30.503 4.56932C29.644 4.56932 28.9296 4.48767 28.1059 4.28883C25.5885 17.1804 19.5467 17.3242 7.46302 16.8351C-2.20388 16.4437 -0.592719 3.13778 1.9247 0.429485C4.5906 0.0514765 9.20063 -0.194319 14.5119 0.202613C21.0572 0.69178 23.6189 3.20558 28.1059 4.28883C28.9296 4.48767 29.644 4.56932 30.503 4.56932C31.2295 4.56932 32.0795 4.38063 33.0357 4.08502C36.055 3.15159 40.1322 1.15221 44.721 0.662965Z" transform="translate(119.847 59.4011) scale(-1 1)" fill="white" fill-opacity="0.4"/>
</g>
<g id="Group 2">
<g id="Vector_20">
<path id="Vector_21" d="M2.79015 5.65726C4.3311 5.65726 5.5803 4.39085 5.5803 2.82863C5.5803 1.26643 4.3311 0 2.79015 0C1.24919 0 0 1.26643 0 2.82863C0 4.39085 1.24919 5.65726 2.79015 5.65726Z" transform="translate(107.143 64.1152) scale(-1 1)" fill="#2A2B2D"/>
</g>
<g id="Vector_22">
<path id="Vector_23" d="M0.855252 1.73409C1.32759 1.73409 1.7105 1.3459 1.7105 0.867047C1.7105 0.38819 1.32759 0 0.855252 0C0.38291 0 0 0.38819 0 0.867047C0 1.3459 0.38291 1.73409 0.855252 1.73409Z" transform="translate(104.354 65.0193) scale(-1 1)" fill="white"/>
</g>
</g>
<g id="Group">
<g id="Vector_24">
<path id="Vector_25" d="M2.79015 5.65726C4.3311 5.65726 5.5803 4.39085 5.5803 2.82863C5.5803 1.26643 4.3311 0 2.79015 0C1.24919 0 0 1.26643 0 2.82863C0 4.39085 1.24919 5.65726 2.79015 5.65726Z" transform="translate(77.3862 64.1152) scale(-1 1)" fill="#2A2B2D"/>
</g>
<g id="Vector_26">
<path id="Vector_27" d="M0.855252 1.73409C1.32759 1.73409 1.7105 1.3459 1.7105 0.867047C1.7105 0.38819 1.32759 0 0.855252 0C0.38291 0 0 0.38819 0 0.867047C0 1.3459 0.38291 1.73409 0.855252 1.73409Z" transform="translate(74.5942 65.0193) scale(-1 1)" fill="white"/>
</g>
</g>
<g id="highlights">
<g id="Rectangle">
<path id="Vector_28" d="M0 0H3.73497V16.8905H0V0Z" transform="matrix(-0.841395 0.540421 0.529959 0.848023 110.282 58.175)" fill="white" fill-opacity="0.5"/>
</g>
<g id="Rectangle_2">
<path id="Vector_29" d="M0 0H2.14326V16.8905H0V0Z" transform="matrix(-0.841395 0.540421 0.529959 0.848023 105.63 59.3997)" fill="white" fill-opacity="0.5"/>
</g>
<g id="Rectangle_3">
<path id="Vector_30" d="M0 0H2.7799V13.0452H0V0Z" transform="matrix(-0.819008 0.573781 0.497127 0.867678 79.2651 59.3997)" fill="white" fill-opacity="0.5"/>
</g>
<g id="Rectangle_4">
<path id="Vector_31" d="M0 0H1.59521V13.0452H0V0Z" transform="matrix(-0.819008 0.573781 0.497127 0.867678 75.8999 60.3618)" fill="white" fill-opacity="0.5"/>
</g>
</g>
<g id="Vector 3_2">
<path id="Vector_32" d="M1.56697 1.20463C0.552526 1.36891 -0.138482 2.33579 0.0235609 3.36423C0.185594 4.39266 1.13932 5.0932 2.15377 4.92893L1.56697 1.20463ZM19.4824 2.08836L19.3456 3.96902L19.4824 2.08836ZM68.5305 4.92893C69.545 5.0932 70.4986 4.39266 70.6608 3.36423C70.8228 2.33579 70.1317 1.36891 69.1173 1.20463L68.5305 4.92893ZM49.6915 2.54871L49.8861 4.42413L49.6915 2.54871ZM6.89522 2.31523L6.63757 0.447655L6.89522 2.31523ZM12.4335 18.7208L12.3593 20.6051L12.4335 18.7208ZM63.7492 0.616911C62.7937 0.234565 61.7132 0.709954 61.3361 1.67871C60.959 2.64746 61.4279 3.74274 62.3835 4.12507L63.7492 0.616911ZM58.6012 18.7279L58.527 16.8436L58.6012 18.7279ZM39.8308 5.60456C39.6313 4.58291 38.6527 3.91867 37.6449 4.12092C36.6371 4.32318 35.982 5.31535 36.1815 6.337L39.8308 5.60456ZM69.1173 1.20463C66.0169 0.702581 58.7339 -0.311549 49.4969 0.673304L49.8861 4.42413C58.6664 3.48796 65.589 4.4526 68.5305 4.92893L69.1173 1.20463ZM49.4969 0.673304C46.2275 1.02189 43.2396 2.0737 40.8119 2.97201C39.5664 3.43284 38.5139 3.83638 37.5677 4.13452C36.6091 4.4366 35.9391 4.56932 35.4735 4.56932V8.34083C36.5182 8.34083 37.6256 8.06578 38.6719 7.73607C39.7308 7.40242 40.9111 6.95016 42.0874 6.51492C44.5029 5.6211 47.1136 4.71973 49.8861 4.42413L49.4969 0.673304ZM2.15377 4.92893C3.3814 4.73014 5.28746 4.44732 7.15288 4.18281L6.63757 0.447655C4.76365 0.713367 2.82993 1.00012 1.56697 1.20463L2.15377 4.92893ZM7.15288 4.18281C9.6747 3.82523 14.1517 3.58084 19.3456 3.96902L19.6191 0.207712C14.1907 -0.197989 9.44753 0.0492237 6.63757 0.447655L7.15288 4.18281ZM5.54149 1.02196C4.56348 2.07411 3.89962 3.81977 3.52233 5.56168C3.12774 7.38342 2.97385 9.53571 3.25164 11.6374C3.52819 13.7295 4.25257 15.9084 5.74045 17.62C7.27164 19.3814 9.47566 20.4883 12.3593 20.6051L12.5078 16.8366C10.558 16.7577 9.33833 16.0545 8.53146 15.1264C7.68127 14.1483 7.15323 12.7582 6.93889 11.1364C6.72577 9.52411 6.84251 7.81764 7.15595 6.37059C7.48668 4.84371 7.96825 3.91051 8.24896 3.60851L5.54149 1.02196ZM19.3456 3.96902C22.3715 4.19516 24.4553 4.88129 26.356 5.65778C28.2115 6.4158 30.2217 7.42387 32.6456 8.00904L33.5073 4.34012C31.4442 3.84204 29.9299 3.05159 27.7464 2.15961C25.6082 1.28609 23.1385 0.470737 19.6191 0.207712L19.3456 3.96902ZM32.6456 8.00904C33.6166 8.24346 34.4758 8.34083 35.4735 8.34083V4.56932C34.753 4.56932 34.1837 4.50339 33.5073 4.34012L32.6456 8.00904ZM12.3593 20.6051C15.3686 20.7269 18.1044 20.8149 20.5188 20.6618C22.9373 20.5084 25.1659 20.1079 27.1323 19.1727C31.2498 17.2146 33.5933 13.2384 34.9011 6.54079L31.2518 5.80835C30.0423 12.0023 28.1061 14.5438 25.5524 15.7582C24.1832 16.4094 22.4783 16.7587 20.2867 16.8977C18.0911 17.0368 15.5404 16.9593 12.5078 16.8366L12.3593 20.6051ZM62.3835 4.12507C62.1029 4.0128 62.1523 3.89512 62.3929 4.30729C62.5886 4.64259 62.8087 5.15768 63.0071 5.8341C63.403 7.18377 63.6443 8.94183 63.5459 10.6719C63.4465 12.4194 63.0124 13.9563 62.2326 15.0315C61.5105 16.0271 60.3979 16.7679 58.527 16.8436L58.6754 20.6121C61.638 20.4922 63.8149 19.2164 65.2297 17.2658C66.5867 15.3948 67.1367 13.0558 67.2599 10.8889C67.3841 8.70457 67.0865 6.50973 66.5731 4.7592C66.3168 3.88554 65.9898 3.0637 65.5946 2.38664C65.2442 1.78645 64.6591 0.98099 63.7492 0.616911L62.3835 4.12507ZM58.527 16.8436C55.5009 16.9661 52.9562 17.0303 50.7715 16.8729C48.5911 16.7156 46.8937 16.3438 45.53 15.6714C42.9725 14.4102 41.0418 11.8057 39.8308 5.60456L36.1815 6.337C37.4879 13.0274 39.813 17.0461 43.9027 19.0629C45.8626 20.0293 48.0868 20.4602 50.5075 20.6349C52.9239 20.8091 55.6598 20.7342 58.6754 20.6121L58.527 16.8436Z" transform="translate(124.817 57.5151) scale(-1 1)" fill="#EB5757"/>
</g>
</g>
</g>
</g>
<defs>
<radialGradient id="paint0_radial" cx="0.5" cy="0.5" r="0.5" gradientUnits="userSpaceOnUse" gradientTransform="translate(12.8836) scale(12.8836 8.88602) rotate(90)">
<stop stop-color="#E87474"/>
<stop offset="1" stop-color="#E87474" stop-opacity="0"/>
</radialGradient>
<radialGradient id="paint1_radial" cx="0.5" cy="0.5" r="0.5" gradientUnits="userSpaceOnUse" gradientTransform="translate(12.8836) scale(12.8836 8.88602) rotate(90)">
<stop stop-color="#E87474"/>
<stop offset="1" stop-color="#E87474" stop-opacity="0"/>
</radialGradient>
</defs>
</svg>
